/* XPM */
static char *_821265df8f84f6293a97b90d2c6003d9CvOpu7o9lbsliJU[] = {
/* columns rows colors chars-per-pixel */
"50 50 161 2 ",
"   c #051E09",
".  c #052702",
"X  c #0A2504",
"o  c #0A2C04",
"O  c #0C240C",
"+  c #0E2B0C",
"@  c #122B0D",
"#  c #14330D",
"$  c #1A360F",
"%  c #14390E",
"&  c #18390C",
"*  c #0D2414",
"=  c #0F2A12",
"-  c #0D2C1D",
";  c #132715",
":  c #142C14",
">  c #192D15",
",  c #15261C",
"<  c #152D1A",
"1  c #1A2E1B",
"2  c #153214",
"3  c #1A3315",
"4  c #173A16",
"5  c #1C3A15",
"6  c #15321B",
"7  c #1C341C",
"8  c #1D3A1B",
"9  c #21380E",
"0  c #223517",
"q  c #213C15",
"w  c #21361D",
"e  c #213C1C",
"r  c #1D2E21",
"t  c #143123",
"y  c #1D3422",
"u  c #1E3B22",
"i  c #1C3529",
"p  c #1F3A2A",
"a  c #223624",
"s  c #233C23",
"d  c #293D23",
"f  c #22372C",
"g  c #28352B",
"h  c #243C2A",
"j  c #2A3E2A",
"k  c #283E32",
"l  c #1F410F",
"z  c #1D4115",
"x  c #1E421B",
"c  c #234315",
"v  c #284A17",
"b  c #23431D",
"n  c #29451E",
"m  c #254A1C",
"M  c #2A4B1E",
"N  c #2B5516",
"B  c #25511E",
"V  c #2C521C",
"C  c #1E4021",
"Z  c #254323",
"A  c #2A4424",
"S  c #264A23",
"D  c #2B4C24",
"F  c #25432A",
"G  c #2B442B",
"H  c #264929",
"J  c #2D4C2A",
"K  c #314D25",
"L  c #35472F",
"P  c #314D2C",
"I  c #265521",
"U  c #2D5324",
"Y  c #2E5924",
"T  c #2E522B",
"R  c #2F592A",
"E  c #325425",
"W  c #335A26",
"Q  c #33542C",
"!  c #39562D",
"~  c #34592C",
"^  c #3A5C2D",
"/  c #2D4533",
"(  c #2C4C31",
")  c #324D32",
"_  c #2E5330",
"`  c #345432",
"'  c #3A5633",
"]  c #365A32",
"[  c #3B5C33",
"{  c #335438",
"}  c #395638",
"|  c #375938",
" . c #3C5C3A",
".. c #356126",
"X. c #3B6325",
"o. c #3A6827",
"O. c #35632C",
"+. c #3B622D",
"@. c #366333",
"#. c #3D6234",
"$. c #3F6C32",
"%. c #3E623A",
"&. c #405D27",
"*. c #455F2F",
"=. c #405F35",
"-. c #425F39",
";. c #42662D",
":. c #476E2B",
">. c #49682D",
",. c #426534",
"<. c #436B35",
"1. c #4A6D34",
"2. c #44643B",
"3. c #4A653D",
"4. c #456A3B",
"5. c #4A6C3C",
"6. c #4B7235",
"7. c #45753B",
"8. c #4B733C",
"9. c #4A7A3C",
"0. c #507532",
"q. c #52753C",
"w. c #55783E",
"e. c #5A7E38",
"r. c #3F5D43",
"t. c #445F40",
"y. c #466541",
"u. c #4C6644",
"i. c #456B41",
"p. c #4B6B43",
"a. c #496C4B",
"s. c #536E43",
"d. c #4D7243",
"f. c #4C7A44",
"g. c #4F764A",
"h. c #527345",
"j. c #5A7747",
"k. c #557A47",
"l. c #527449",
"z. c #58764D",
"x. c #54794C",
"c. c #5B7C4C",
"v. c #517450",
"b. c #557A51",
"n. c #637F4F",
"m. c #5C8443",
"M. c #5E804D",
"N. c #60804E",
"B. c #65894C",
"V. c #668357",
"C. c #648C52",
"Z. c #658458",
"A. c #6D8F5D",
"S. c #6F9250",
"D. c #709456",
"F. c #73935E",
"G. c #7B935F",
"H. c #6E8D63",
"J. c #718E60",
"K. c #729265",
"L. c #7D9A62",
/* pixels */
"D Z D #.Q U V @.W %.U 3 Z Z R ..i.S Z ) j j w s g 7 8 G / 6 | $.2.S 6 ) G u ] o.J G 8 [ ;.w.E 0 a 7 ",
"{ 6 D k.] T Q ( ` J A @ y s J [ 5.M # 3 7 F 7 s b @ 8 5 6 : s ! d.U z J ) 5 [ i.] A 5 b ~ A.' 1 5 e ",
"y 6 b E ~ U . y s 7 e > w w s 5 5 D E ' ] J 4 F f.~ [ ` A e > 7 +.6.C.b 1 e 3 F ~ A 4 ) ! [ F a ' Q ",
"a h D U D Q Q d 7 w d } G 5 L s Z ( Q P Q U m T <.U Z ` K q 3 y m <.q.E s 0 s y n P 7 G J T D 1 Z H ",
"0 y 8 ] { ! L.*.2 e ! J.h.Q ` ` _ _ Q Q ~ ! ' Q D Z u ` Q Q A h | { D [ K O 7 a 5 7 7 < s T n $ 8 b ",
"=.u 4 Z F 5 >.^ -.5 e 4.W v # S W W U 8 2 2 F j G a u e S ~ 8 6 4 6 6 Q A , 1 e J Z a ) _ 8 ^ j.a a ",
"p.4 b b : 2 M -.u.A Z J Q Q $ 5 U E Z : : 6 Z 2 a 8 5 5 S J Z a = 7 2 D L ; e 5 Q J 3 L ) 2 p.n.s s ",
"R `  .s.G 6 u t : 6 a 6 J [ ` F O a a 7 G | 5.;.< P ^ 8. .7 w 3 1 ' h.6 : 0 A  .f.E $ 4 h 6 D ! a 8 ",
"G s J #.W U w a 1 Z b m Z s ` Q v 8 a y d q #.@.` F K ! K D Z F y J 2.m 5 8 G L <.+.^ q a 1 s s F F ",
"7 + 8 R 5.p.2 a h P R ~ 5 > P #.z.J 6 y w O Q ] k.D O e Z Q Q B 2 S Q Q J 4 u 2 v 5.K.K > j y : U U ",
"a 7 Z ~ #.! 8 a 5 J U [ Z 1 A e e Z D 7 a 7 < s ~ U ~ c.2.! Q ~ T ] Q ! ` Z Q U G Z 2.e a a < 5 T U ",
"a u s J U b Z 8 5 Q E A d s a >   Q ~ b a a > e ` U ~ M.5.K Q J R D D D Q  .R U 4 m D b d 1 F 8 J J ",
"8 7 4 2 J P 2 5 7 J Q + 6 4 6 7 X D W h.P : 7 e ^ U Q { b . D ! ' e @ X 5 ' ` ] } ] ~ d.y.2 S ~ : : ",
"G e y : 8 A A G ( Z d O ) } Z P P E W +.2.3.D D m S ` ` J 8 T R A s : j A b Z S F b R R @.Z T T A b ",
"T d y a : >  .` ( 2 @ 7 #.d.~ [ x.~ Q D s.J.#.S 6 H ~ U ~ ~ ' J 7 s a ' P 5 2 2 O 5 +.U ~ ` P Q E Q ",
"Q 4 7 y a 7 3 3 4 6 A s.4.7.Y W W x C ] V c U T D [ U 8 b ] W m : : 7 U ~ 5.{ ' a d ~ U P 8 e e s s ",
"_ H Z ( h 1 1 1 6 3 A 3.2.#.M E R x s ) a 8 J ' _ U U U b ( T T y J A P ' 4.^ M u Z U U R F e 0 8 8 ",
"W 8.8.5.n 5 e 0 7 s 3 2 7 f * t ..~ P s 7 8 : u | _ ] d.[ 5 S [ 8.e.S.c 5 [ x - e < * S  .h.' 3 7 y ",
"Q ^ $.O.[ ` : G / 5 v 3.J A E ' _ J u a b D =.Q 8 Z b -.' 3 A J ! ^ p.8 y Z Q  .w y 7 G D D D { | ! ",
") U U B 4.a.7 L ` 5 E F.>.W q.;._ F 7 8 A ! 5.^ O 4 0 P G 7 s 1 - J F p y & +.5.u 5 0 6 : * Q x.5.,.",
"e ! W R W %.d.M @ M E [ 5 2 7 s W U E 2 Z ` 7 a y a h Z 5 7 7 j ~ E U b G K W ^ i.#.~ s y 7 4 # ~ U ",
"< G S D S D -.D < F ` P ) )   h ^ S J Z _ ' : ; j 6 y 7 Z P 8 f Q v E 3 h J J ( $.@.H J G P d 7 R D ",
"y y < * 7 * : 7 f O 2 ~ 4.p.$ q { Z 8 Q ! U e @ 5 3 Z S 2.d.A 6 6 G ` ; * 7 e y R U T a.k.h.2.{ Q W ",
"z =.K > 1 a y.D 5 b v ^ D J w 7 8 Z Z 8 8 H 2 f K P [ R ^ +.D _ r.n q n P 2.b s ` Q W v m x D Y Z F ",
"s 5.W x 6 S f.V % U ` } a y a 7 O J T o 3 w f d E 5.d.Q ] T T ! f.D X K [ d.m 0 E Q L 7 * ; A E 8 s ",
"u W $.4.x.a.~ ! ' ' x 4 7 1 a 8 e F %.f.K , a 5 2 D U I U ~ b a ~ G 7 7 b [ Q ` + 2 Z 7 b K F u 8 s ",
"5 Z _ 4.~ Q J b Z Q Y x Z Z Q 5 e e Z 5.n ; y s J ` W B V ] 8 a G G j : 6 Z H u 7 7 s 4 d  .U C 8 8 ",
"' = 6 ~ z 5 s > : D @.R U #.d.#.@ 3 : E q : < J g.[ T 2 Z ` s e 3 3 3 7 7 u 7 < 7 7 7 7 5 J U R s s ",
"d < h q v L 7 7 0 J R ] T R ] #.z.5 : E D Z u d D S | H ` ` 8 e ,.3.p.3.P > ; w f a 5 ,.q.5.[ H a u ",
"7 Z s b ' J d a e { D S Q Q D 4.K.e 1 ! Q { s 2 7 Z Q W T ` s / 8.k.C.8.=.@ w n y 7 e l.V.5.#.U Z s ",
"e V.M.p.F x g.#.D [ D > , : : m E 2 7 ' Q T s e 7 8 b E ~ ] 8 < 3 m O.U [ K i.4.e 5 > > = X Q c.T J ",
"E q.:.%.H S $.W R b u 1 1 r G S Q 5 6 ! U H u a ! L J Z J S J J a F S S D ! #.@.F s L G A 3 b ` W U ",
"d.U U Q J  .U U Q = O e 7 F E ` Q 5 z ` Z 6 7 P f.9.<.l t 6 4.1.0 > g r u ] T Q ] ~ I f.4.2 2 : U Q ",
"^ U E Q U ` R O.4.s A y.G 5 M ` T ` S b ` u.s e x +.8.T ) J #.W T F 7 J J 4 6 y : S ! W ~ ) G r 5 e ",
"T E U U Q _ R #.p.Z Z p.` 8 W Q ` ] Z q Q 2.b 8 3 Q y.` Q J U D T S 5 E E b y , : w P U R ' A y > 1 ",
"E ~ S . b  .T S 4 2 8 W Q E U Q S x 5 P G e Q ` Q b = : A Q 5 : R R ~ Q #.p.J 7 7 < + D Q ' e 3 7 a ",
"E S / 4 ~ +.x s 4 `  .U U R 8 ! 8.^ Q ) F 2 { U U S 8 7 G A 3 a ~ D _ S H p.R U 8 G J T U ~ T D u s ",
"E 5 Z { h.<.8 y h 2.i.T W D = ! D.k.2.2 6 u T ~ W ] Q 7 0 3 > > E ' J C u T <.6.7 T b.R U R T T 8 s ",
": J [ E b Z J A < e J _ ~ ! < 7 q K #.U %.i.J D + D ' 2 1 a u.h.: J Q T F 3 Q R 7 5 D m R ' Z 3 7 Z ",
"y J M W u p ` D / 5 C T M P k 7 ; F D B ^ 7.Q Z < F K @ y F z.0.* x U W K O G _ A F 2 J T Q d : 7 e ",
"> ` E Q u 2 3 3.G.e 6 8 3 f < q e 7 y 7 Z U 5 y 7 ) ) X M m.U H a 5 > ` ` # T Q q.] 6 7 Z ! ~ R > 1 ",
": d v E #.' > L ^ [ T m J J P Z i a q ! ~ Q G s 6 G G 7 F _ Q Q Z A J d 7 5 Q { +.~ Q Z u 8 Z Q 1 > ",
"u * s ~ 4.5.8 y & 4.2.Q ! J ' Z y 3 A l.%.W Q E 5 5 4 y i 6 ` W ~ ! ` : : e J Q W #.h.A 7 , F ' > @ ",
"a 7 < @ E E 4 F E Z H U c : : ! B.b 7 F S R V W 1.b : 7 T 4.^ D o + 2 2 d L Q R 6 b ,.0 7 < 7 0 ,.[ ",
"5 a y < F v S S J 6 u ' c 1 , P m.E A y H ] W ~ 3.d 2 5 U 8.D Z 4 7 7 7 J  .R I F Z D q 7 , b K <.@.",
"E e y f = u h.Q 2 u Z ) A a 7 a Q 5.q.! ] T ` b * < 5 ' ` _ 2 + a L ) 5 m g.] W { Z 5 7 y a 5.F.] W ",
"5 P d 7 1 7  .~ | b 5 } G 3 ' [ J P v 3 Z T [ T y a 7 F _ _ ` U > G -.m U i.Z 4 ] T F u 7 b ! 5.Z s ",
"< ) n 5 3 : Q %.q.5 J E q s v.o.W : * : Z ~ U D 0 0 h < x Y 6.<.5 J U U U P 7 1 N R ' 6 5 Q Q D w 7 ",
"a 8 u u D J : A R Q G : y e Q T Q R D 5 7 a P ] R U D 8 u a J R Q A a 8 F ` R J a 8 5 J ` 8 8 a 8 w ",
"a 7 a s U T : s H J G : 7 7 Q R R Q T 8 s A J T Q R T d d Z J R K F 7 7 Z ! T D a 7 8 J Q s F a a y "
};
