/* XPM */
static char *_a879ddc0f694dced551700f224378cb6sC1nwp7O7h2XscO[] = {
/* columns rows colors chars-per-pixel */
"50 50 142 2 ",
"   c #1C1F26",
".  c #1C1F28",
"X  c #1E2127",
"o  c #1F2229",
"O  c #22262C",
"+  c #26292E",
"@  c #282B2F",
"#  c #242730",
"$  c #272B31",
"%  c #2A2D32",
"&  c #2D3136",
"*  c #2E3339",
"=  c #303236",
"-  c #32353B",
";  c #35383E",
":  c #38393E",
">  c #343740",
",  c #363A41",
"<  c #3A3D44",
"1  c #3B3E48",
"2  c #3D4146",
"3  c #3E4249",
"4  c #414247",
"5  c #41454C",
"6  c #44494E",
"7  c #434750",
"8  c #464B52",
"9  c #494D54",
"0  c #4B4F59",
"q  c #4C5156",
"w  c #4E535A",
"e  c #505156",
"r  c #51565D",
"t  c #54595F",
"y  c #4F5660",
"u  c #525661",
"i  c #555B63",
"p  c #5A5F66",
"a  c #5C5F66",
"s  c #595D65",
"d  c #575E68",
"f  c #5B5F68",
"g  c #5A5E69",
"h  c #5A5E6A",
"j  c #5A5F69",
"k  c #576067",
"l  c #5C6167",
"z  c #5A6167",
"x  c #576069",
"c  c #596068",
"v  c #586168",
"b  c #5A6169",
"n  c #59606A",
"m  c #5B626A",
"M  c #5D6268",
"N  c #5C6369",
"B  c #5F6269",
"V  c #5C636B",
"C  c #5E626B",
"Z  c #5F626B",
"A  c #5B646B",
"S  c #5F646A",
"D  c #5C606C",
"F  c #5F636C",
"G  c #5D646C",
"H  c #5E656D",
"J  c #5D666D",
"K  c #5F666E",
"L  c #5D636B",
"P  c #5F6671",
"I  c #5F6871",
"U  c #60646D",
"Y  c #62656C",
"T  c #61656E",
"R  c #60646F",
"E  c #60676F",
"W  c #61656D",
"Q  c #63686F",
"!  c #626671",
"~  c #616870",
"^  c #626971",
"/  c #636A72",
"(  c #646871",
")  c #666B71",
"_  c #666972",
"`  c #666A73",
"'  c #656974",
"]  c #676B74",
"[  c #676B76",
"{  c #656C74",
"}  c #666F76",
"|  c #656A73",
" . c #686F77",
".. c #696D75",
"X. c #6A6C78",
"o. c #6B6F78",
"O. c #6B6F7A",
"+. c #6B7076",
"@. c #6D717A",
"#. c #6D727B",
"$. c #70777F",
"%. c #71747D",
"&. c #74797F",
"*. c #6F7681",
"=. c #737581",
"-. c #757783",
";. c #727681",
":. c #747881",
">. c #757984",
",. c #757C84",
"<. c #767D85",
"1. c #757B84",
"2. c #7A7E87",
"3. c #797E86",
"4. c #7A7E89",
"5. c #7C8187",
"6. c #798088",
"7. c #7F838C",
"8. c #7D828B",
"9. c #7F8590",
"0. c #81858E",
"q. c #81858E",
"w. c #818590",
"e. c #838790",
"r. c #828791",
"t. c #818892",
"y. c #848891",
"u. c #858992",
"i. c #868A93",
"p. c #868D95",
"a. c #858A94",
"s. c #888C97",
"d. c #888F97",
"f. c #8A8E97",
"g. c #898C96",
"h. c #878E98",
"j. c #8A8E99",
"k. c #8D9097",
"l. c #8E929B",
"z. c #8D919B",
"x. c #91949D",
"c. c #9497A1",
/* pixels */
"% + & = @ @ % % % % % $ & = @ @ % % @ % % % @ & @ = % + % % @ @ & % O & & O % @ & @ % % % % @ = % % ",
"& $ $ + % & @ % % % @ @ @ @ & & @ @ % % & % @ % @ @ % % = @ @ % O % % % @ @ & % $ % % & % @ @ @ @ % ",
"% % % @ < 4 & & % % + & % = 4 < + & & @ & @ % - 5 - % % % @ @ & @ 2 3 & @ % % & + & & 2 1 = & @ % % ",
"@ % % @ 5 0 % % @ % @ % % & 9 5 + & @ + % % @ - i : + $ % & @ & & 4 q & @ & @ % % + & 6 8 $ @ & % % ",
"% % % O 4 0 @ % @ % % @ % % 8 2 + @ % % % @ % = w * $ % & % @ % + 2 9 % $ & # & % + $ 6 6 + + & % % ",
"% % = : r i < : % % % $ > 2 i 0 < = % = % % : 6 i 5 < * % @ @ - < q i 2 > & & % @ - 3 t w 2 = $ % % ",
"% % : 0 Y _ w 1 @ $ * $ 3 w I J e : % % % = 6 t O.i 8 = % % @ : e l ' e 1 % * % @ 2 t W J q , $ @ % ",
"@ + - 0 a h r 1 % + % # 3 w M M 9 = + % @ % 6 t I w 5 % @ - @ = 0 i R r 1 O % % + ; w z k 9 - + @ % ",
"@ < : w J U _ 9 & & & - 6 i D N J < & % * < 8 u J ^ r , = $ * 2 w N J s r * = & = 5 u h D B 4 - @ - ",
"& 6 w x i U i.-.q - @ r r t w ^ p.U 6 % , 9 i H M 6.u.r 1 = 8 w i i _ l.O.8 , % 9 r s D >.g.B 7 = < ",
"O q i w U #.u.X.5 & & r 0 D ^ { z.i 8 O 9 i 0 M } ,.4.u , X w r i i ! u.] r & = w t r u X.g.s 5   ; ",
"; w z i D R q.-.9 < : 9 i r A *.r.H 9 = 1 i H i A ,.7.w 2 : 9 l i U ' w.:.8 , = q i g i [ g.g 9 , 4 ",
"i.t 6 w J  .s._ 4 5.8.7 0 u J  .p.i 7 c._ 7 u d I 4.4.5 O.j.r 9 y H j r.#.4 4.q.3 q y h O.a.s 9 i.%.",
"l l ] +.+.#.u.=.^ M a _  . .#.<.a.#.H a a ! _ #.#.9.w.[ D s D _ { *.,.s.4.R s A } / O.*.4.a.#.( a Y ",
"$ %.k.p.d.i.s.s.l.> * u.l.x.i.7.w.s.4.O g c.h.a.a.a.r.x.u O :.x.h.9.s.4.d.x.< & z.h.s.s.a.a.s.q.$ 9 ",
"$ t t r i i r u i - - g r u r i u i 9 & 3 i d y y y g u 9 $ e i u u g u u u > > d y u u u r a q % 1 ",
"+ 8 9 8 i 8 s t q $ - q 9 9 y w h 8 8 + ; 8 8 w w i t 4 : & 4 q w 9 w i i 9 - * 4 8 w 9 w D 8 6 $ : ",
"% 8 w t J ! u.#.9 < % 3 i k A :.a.j 6 = $ # s i J <.5.& $ @ 6 t t J  .9.%.0 = $ % 4 k I ;.q.Y 6 % , ",
"$ 3 w i i J s.! % * < w t j M  .p.s 8 % % % u i J 6.8.@ & $ * 3 i M J q.%.6 = % O 3 k A &.k.Y 3 % < ",
"% 8 w i i s s.a % + = z s s A #.p.i 8 + & & 8 H H 4.&.: & + + : z N U r.:.9 - % @ 8 k x } i.S 6 # 2 ",
"* t y y h / j.P X % - i i i w { k.i 8 * % # 0 H U 5.3.9 < % & & i i { t.@.8 ; % + 5 i I *.g.D 6 % 4 ",
"o y k k A [ s.P * & : t i j s ] p.j 5 $ - 5 w d ^ 3.q.r 3 O < 3 k M +.i.@.0 - $ : 8 y I *.d.s 4 $ 1 ",
"* q i i A / d.#.q & $ 9 r i P #.h.j 7 % 3 s r P J ,.0.9 1 $ 9 I t i ! u.O.6 , $ e i i P O.s.a 8 * - ",
"#.y q t A ! a.#.4 #. .q w i M #.h.i 0 %.R 9 i i I 4.q.9 a %.j 7 i N U u.O.e ! O.6 r i A O.s.g 8 #._ ",
"4.d h A I O.s.O.w &.%.u i ! / *.i.( r 7._ i j H ! 4.9.u ' >.R u D _ +.a.*.0 >.>.u d R ' O.i.( t <.+.",
"% *.z.9.j.a.s.j.x.= < l.d.r.h.h.i.g.q.  s x.s.g.h.a.s.c.g O -.l.g.p.7.s.z.a.3 * h.s.j.s.j.x.i.q.& 9 ",
"# P ' J  ._ ! ! Q ; * ] O._ H ^ ' R Y   r X.D  ./ P I #.e O Y Y W #.O.H P =.& < ' ! R D ' g ..Y O 3 ",
"* 1 5 9 8 7 u 8 6 ; - 9 5 9 9 0 9 e 5 @ : 6 w 4 8 9 w < 4 @ < 9 8 5 3 0 0 8 & % 8 8 0 9 e 9 9 4 & , ",
"% 8 i i D U 8.+.q @ - q w t W W 4.s 5 @ 5 e r a S &.3.u 4 O 9 t i k _ 7.W $ = & q w k A  .5.Y 9 $ 2 ",
"@ 2 6 q N  .i.%.9 = ; q s k J #.c.u 4 O 6 e r a N q.q.8 , $ 9 9 i I ^ i.^ + @ - 9 9 i k #.x.r < + : ",
"@ + , s R ! s.O.e % - z i t U +.s.1 O @ : 6 i l W 5.1.% % % 4 i w A ! s.^ % + - w t s r ! g.2 X % % ",
"* @ * i s ( u.@.8 = - i t z D #.l.1 % O 1 r i i k 9.4.% % % 9 q d i j s.H O % = 8 r i r O.j.7 $ % & ",
"& & - z i ! u.O.9 = > u r i _ ] a.8 O = 2 w i i D 5.q.& = % 4 r i t i i._ % $ = w t x w  .g.0 @ * * ",
"X 6 w r H X.a.#.8 % $ e t s D #.d.H 5 X , w u j W <.5.w > O 0 q t t D q.#.9 O = q w i M #.j.t 5 o & ",
"t q w t P ! a.O.9 t t 9 u i Y #.a.d 5 a w w g d P ,.8.t 9 t 6 t i i R q.=.8 a 0 8 w y I #.s.a e M w ",
"k.i 6 k D X.j.O.5 7.7.9 w i I +.z.u u z.O.8 r h A 7.6.8 ] c.B 8 y ! ' a.O.7 u.u.0 y x P O.u.R e p.:.",
": +.a.9.6.6.s.w.p.2 < a.7.r.r.9.9.4.4.> i r.9.9.8.a.p.a.U > Q i.t.a.4.s.a.4.5 5 3.8.r.7.a.c.7.=.< r ",
"% +.&.$.6.6.,.4.#.< > ,.,.3.,.6.4.r.O.  t 7.;.,.6.4.#.8.w X @.5.:.#.7.,.>.7.- - 8.3.4.-.>.=.:.-.O 6 ",
"% 5 q 9 w 6 8 7 r % - 9 9 5 9 8 2 9 5 % < 9 9 8 3 3 8 w 3 $ 6 6 w 3 8 7 8 8 < % 8 6 5 8 9 8 9 4 % < ",
"% 3 t q i i #.' 9 = & q r i d A <.r 9 $ , w i w x  .#.w > * 6 r t k x #.[ 9 = * q r r D ! #.N 6 @ ; ",
"% 8 w y A [ s.*.9 = * 8 w z K #.l.g 7 % < 8 i x U 2.i.q 4 @ 4 q i A / h.O.8 , * w r i P *.j.! 5 % < ",
"$ 8 w i H ' s.O.9 - @ * 6 l i / g.g 5 % = - y i ! 3.8.9 1 + - ; d A P h.=.9 , * t t d A O.s.s 8 @ : ",
"@ 8 w y d P j.! < - @ O 5 J w / g.i 7 & + # u d ! 2.2.r 2 O % - i i h a.#.8 - % 6 q x d #.j.r < @ 2 ",
"@ 8 w i i i j.h O @ + % 7 M y } s.i 9 % % % w j ! 2.q.t 2 @ % ; x y d t.=.8 - % + 2 k w ! d.4 O @ 2 ",
"% q w k i i s.H X & * 4 w s M  .j.s 8 $ < 6 y x ! 1.2.e < @ @ = x y k 9.*.8 * $ O 8 P d *.z.7 X @ 4 ",
"% q t k d A s.P @ * - w t i / #.d.r 4 $ 2 i w M R 2.q.t 1 @ - 2 k y x 9.*.9 > % $ 3 h h X.s.9 * % < ",
"% 9 w y M / p.J O @ & 9 r i A #.a.7 % $ < w w i H 8.i.q 1 @ 4 r y k x 9.#.8 - $ % 3 d P #.s.s 5 @ < ",
"$ 8 w w J O.r.M O % - 9 i j d *.d.3 O * < w i s ! 3.4.2 ; @ 6 e k x A p.#.9 , % $ 3 j I O.j.Y 5 % < ",
"% 6 q k v Q p.W % + & q t i J #.g.4 $ $ 1 r u j H ,.4.% % % 6 r y A I p.#.9 * & & 3 i J *.s.a 8 $ , ",
"$ 6 q k v } s. .4 = - w r i J +.d.3 $ $ 1 e i d I <.8.% % % 5 r k x I p.#.9 * & 7 w x A *.i.a 5 $ < "
};
