/* XPM */
static char *fb63b40ad514464f9552601cee6c17d0AAdHc0JXkqghXAJa[] = {
/* columns rows colors chars-per-pixel */
"50 50 227 2 ",
"   c #31190D",
".  c #2D1614",
"X  c #2C1B13",
"o  c #2C1B1A",
"O  c #321514",
"+  c #331A15",
"@  c #3A1B16",
"#  c #34161A",
"$  c #3B161C",
"%  c #341C1B",
"&  c #3B1C1C",
"*  c #3C1711",
"=  c #38220D",
"-  c #352114",
";  c #3B2316",
":  c #35211B",
">  c #3C211D",
",  c #39291A",
"<  c #351C21",
"1  c #3C1E23",
"2  c #3B1F2D",
"3  c #321720",
"4  c #2C2223",
"5  c #362321",
"6  c #3C2222",
"7  c #3F2234",
"8  c #461B15",
"9  c #421D1C",
"0  c #4C1F1D",
"q  c #411718",
"w  c #541E19",
"e  c #451B0B",
"r  c #4A210D",
"t  c #44221C",
"y  c #4A231D",
"u  c #4C291C",
"i  c #482217",
"p  c #54241D",
"a  c #5C241C",
"s  c #542A1D",
"d  c #5A291D",
"f  c #582516",
"g  c #503816",
"h  c #632416",
"j  c #6B2A16",
"k  c #64251C",
"l  c #6A251D",
"z  c #642A1D",
"x  c #6B2A1D",
"c  c #6A2815",
"v  c #71271E",
"b  c #722D1D",
"n  c #78241A",
"m  c #6D321D",
"M  c #69381D",
"N  c #73331F",
"B  c #71381B",
"V  c #421C24",
"C  c #4A1D23",
"Z  c #461B27",
"A  c #571E27",
"S  c #432223",
"D  c #4C2423",
"F  c #4D2A24",
"G  c #452529",
"H  c #4D292B",
"J  c #492727",
"K  c #542522",
"L  c #5A2623",
"P  c #542A24",
"I  c #5B2924",
"U  c #532629",
"Y  c #5B2628",
"T  c #532B2A",
"R  c #5C2B2A",
"E  c #563026",
"W  c #5E3324",
"Q  c #5E3926",
"!  c #5D332C",
"~  c #5B3A2C",
"^  c #53302C",
"/  c #5C3531",
"(  c #593531",
")  c #632622",
"_  c #6B2622",
"`  c #642A24",
"'  c #6C2B23",
"]  c #632C2A",
"[  c #6D2C29",
"{  c #6A2729",
"}  c #732725",
"|  c #722C24",
" . c #792C25",
".. c #732D2A",
"X. c #792D29",
"o. c #643224",
"O. c #6D3223",
"+. c #64332B",
"@. c #6C312B",
"#. c #633B2B",
"$. c #6B3A2D",
"%. c #733225",
"&. c #7B3124",
"*. c #723A24",
"=. c #793B27",
"-. c #74332A",
";. c #7A352B",
":. c #753B2D",
">. c #7B3B2D",
",. c #722F33",
"<. c #643533",
"1. c #6C3331",
"2. c #643C35",
"3. c #6B3B31",
"4. c #663F38",
"5. c #723231",
"6. c #7A3435",
"7. c #753A33",
"8. c #7C3C32",
"9. c #773738",
"0. c #733E3D",
"q. c #7C3E3B",
"w. c #5A412B",
"e. c #67442D",
"r. c #72432B",
"t. c #7C412E",
"y. c #7C482B",
"u. c #724327",
"i. c #654336",
"p. c #6A4332",
"a. c #6E4935",
"s. c #68493B",
"d. c #7D4333",
"f. c #74433B",
"g. c #7D443B",
"h. c #734F3C",
"j. c #784A38",
"k. c #61513A",
"l. c #72543C",
"z. c #755A3F",
"x. c #6F3C45",
"c. c #784942",
"v. c #6F5344",
"b. c #735341",
"n. c #795542",
"m. c #7E5A47",
"M. c #786348",
"N. c #822C2B",
"B. c #82352D",
"V. c #823D2D",
"C. c #84382B",
"Z. c #823C32",
"A. c #823E3A",
"S. c #85472D",
"D. c #844334",
"F. c #8A4435",
"G. c #824B33",
"H. c #894A36",
"J. c #84453B",
"K. c #8A453B",
"L. c #864B3B",
"P. c #8C4D3D",
"I. c #904934",
"U. c #924D3D",
"Y. c #99493B",
"T. c #8D523C",
"R. c #8C5C3C",
"E. c #845A3A",
"W. c #92523C",
"Q. c #925B3B",
"!. c #844D42",
"~. c #8D4C42",
"^. c #8D4E4A",
"/. c #914C41",
"(. c #9B4D44",
"). c #934C4A",
"_. c #835343",
"`. c #8C5242",
"'. c #865D45",
"]. c #935443",
"[. c #985643",
"{. c #945B45",
"}. c #9B5B46",
"|. c #935249",
" X c #9C5449",
".X c #925B4B",
"XX c #9B5B4B",
"oX c #8D5351",
"OX c #A25845",
"+X c #826047",
"@X c #976445",
"#X c #996345",
"$X c #9D654B",
"%X c #936949",
"&X c #9A6A4B",
"*X c #976548",
"=X c #9D6551",
"-X c #996D54",
";X c #8E765A",
":X c #A26C4F",
">X c #A46242",
",X c #A36C54",
"<X c #A46F5B",
"1X c #A66B58",
"2X c #A77555",
"3X c #AB7455",
"4X c #AC755B",
"5X c #AA7A5A",
"6X c #B17A5F",
"7X c #A5744B",
"8X c #9A7A61",
"9X c #AE7C65",
"0X c #AD7866",
"qX c #B27C64",
"wX c #B57C68",
"eX c #AD815C",
"rX c #A68051",
"tX c #AB8464",
"yX c #B28261",
"uX c #BD8E67",
"iX c #BA8B69",
"pX c #B49266",
"aX c #B89369",
"sX c #BB8C70",
"dX c #B99673",
"fX c #C3986E",
"gX c #C69078",
/* pixels */
"1XL.>.O.P.:XyXR.H.T.-XqX{.V.x ~.!.r t 4 D V 9 +XyXT.T.U.8.} P.].`.:.-.P.,X4X%.[ } H.c.f 9 6 q D u #.",
"G.m D.].[.W.{.*.| O.*.m c ;.' ..*.tXl.X ` 3.L.R.{.m %.' X.' x J.[.T.J.%.m *.l [ X.x $.^.i.% p f.tX'.",
"L.z D.P.F.F.F.| } ' @.:.z -.' { B tXa.  l -.XXS.Z.| ' [ { ' -.-.G.F.D.l *.>.>.;.x j O. X! + 7.J.5Xt.",
"$Xx | ' l ' | _ | ..J.^.6.| _ [ ..T.<.@ _ A.).C.x ' ' ' a a [ _ h l ' { ^..XXXJ.| b .. XQ > K. X`.*.",
"U.h ' -.[ ` k @.} x :.>.x b | '  .>.<.# A.!.5.D.K.%.| z L.g.' | O.-.| | ..' %.%...h [ Z.U + -.B.8.K.",
"Z.| ..[ ' ' a ` %.' ' x x ....' | z y % |.D.k t./.' x x ~.L.-.k ' ' ' | ) k x %...| 1._ y > _ _ h Z.",
"' ' { ` ' J.~.d.| ' ' ..X._ ' ' ' d D : L.G.:.} ' ' ..| _ ) 8.k ] ` ' %.' 5.' ' [ k s ) D 5 ' *.O.%.",
"' ' ' ..x ;.D.} ` ' ` _ ' | ..' ) a H % d.$.{ _ O.' ' _ | ..) ` L ) %.x k [ .._ { d y o.9 & ) I ` k ",
"] ..Y P { [ +._ o.f Y L ' O.[ ` d p 0 @ P p L _ [ [ ` L R @.I P L L { ..| X.x ` a s K R 0 t u Y L ` ",
"z z d d a k z z I P T ] P d a P J J S % 1 C R R ) ) d ` { a a I s s s d d Y R K I L K y & & S 9 I I ",
"K H P K U Y K J Y D C R F K L Y S 1 1 1 6 G ^ J y F J y P P P P R U F P y s P p F K T 6 : 6 G 5 F L ",
". o $ 1 # 1 $ .   & 6 5 + > % @ C $ @ + . O * * % : 5 : % & . + # . + . + t + % & & q @ . @ @ & + X ",
"h.M.e.M i.Q f M.n.A i > Z Z % A I s W p.m.'.3.p.q.a p L 3.f.<.n.+XE.'.$.0.x.V 7 5 & t p.j.m.p.$.0.R ",
"&XiX7XQ.Q.D.N 6X8XO.8 - G % : ] x O.d.{.9XqXT.`.(.&.%.%.F.}.].1XpXpXeXR.[.n.i ; 1 > u `.6XsX@X].W.F.",
"D.W.3X3X%...' b =.P.J.I & S +.x ;.P.T.T.=.*.' ;.N H.W.H.=.b x N O.O.N b I.[.L.r.# F s x D.}.&.;.Q.&X",
"7.H.%X%X' [ L |  .{.A.X.t E I.N | K.F.P.%.l -._ ' J.!.).~.| ..' ' ' k ' q.J.^...O c.~.%.=.P.} -.G.#X",
"A.| x ' X.) d d =.^.}.T.1 s.fXy._ } x l x ' ..' @.) ;.[.XXK.-.....| ' ' ..' ' ) - ;XiXOX;.' @.} | 8.",
">.l ' [ | 8.J.%.b 9.V.*.# ~ 3Xu.' ' :.~.~.d...' ' ' -.;.>.;.x l a x | | | { I p + p.G.C.;.[ [ ' x -.",
"' z o.` ' A./.;.b ,.' z 1 T H.-.O.' >.~.].8.' | | ..| k _ %.' O.W ` | | } ' R F @ I h j -.[ [ [ ' ' ",
"' ` z a [ .. .| } [ ) a V F %.| ' ' ' -.%.%.| | ' | ` ) ` @.| >.~.*.' | ' L P y & ] ..' ' } } O.@.` ",
"_ { d a o.` l ' x ) I s > y ' { ` ' ' ' } %.' ' z ` R L ] { x B.~.| k ' I L Y K @ R ' ) `  . .' ` I ",
"..) ` I I ) @.I k s R K > y I L I Y ` ' ' ' ' ` s I Y s Y ` _ X.| ` ` I s R R K : D K L ` %.| ' I L ",
"` d R s K L +.P a u D D : & D 9 y K Y ] ` ) Y I L P Y s d I Y ` a ` o.Y K D D & & t y K ` d I R L P ",
"f P K p ] K p I P F C V 6 : 1 : > F P p p L I P R p I I s P K P P K L a I D > : 9 5 5 K I p P L s I ",
"# < O 5 O # 1 # V # . . & $ & ; - 1 5 > # 1 < o . % < < < 5 o % X . < # 3 4 < o @ > % % < 6 > @ # # ",
"3.p.#.Q b.p.i 3.#.Q l.b.Y K F V @ 7 3 ; U L #.a.z.Q Q f +.$.#.f.l.z.a.#.f.@.$.` K P H S 6 5 & S #.h.",
"P.].T.$XgXXXj ].>XE.5XqX:.[ +.u @ 5 6 e ` >.}.3XiX#XG.j D.[.}.1XaXuXeXQ.W.U.OXU.' ' a 8 9 @ 1 T R.2X",
"F.[.=.x 8.%.' | ' O.=.Z.U.D.j *X-X5 ~ L.~.K.&.&.u.4X:X~.D.%.%.%.B R.{.S.3XwX:.[ b K.].!.( y 4._./.D.",
"-.P.;.' ' | -.6.6..._ l U.D.c #X2X+ ~ XX~.A.} { M 0X1XD.>.:.{ ' ,.J.~.P.$X<Xo.` l C.U.`.R 8 !.[./.q.",
"x x l ' O.' k /.~.x ..' _ [ @.' a + <. X;.' ' ' O.P.F.j U./.%.' _ k 8.XX%.N | b 5...x ] K q `.I.l D.",
"j %.X.' | X.x 8.>.| %.` ) { [ _ [ 5 P C.-.` b -.| -.=.v Z.8.h ' %.%.x >.%.x |  .{ x x I H q 7.C.x >.",
"[ ..{ [ .._ -.' ' ' x ' L ] '  .x X E n _ ..X.{ [ ..{ | ' ' L R | l %.' { [ @.{ ' b N p H 1 Y | | _ ",
"x x  .b %.%.x ..' | l ..].J.' _ L > f X.} N b x x %.l  .| &.W.D.' ' ..} | ..{ Y %.h z Y D 8 {  .| | ",
"R L ` [ ` Y ` [ ' %.' %.d.$.` ` U X D ,.` ) -.R ` O._ ..| %.J.:.' z ' z I o.p I ` d U T G @ R ` ` ' ",
"I L Y Y P a ` { ` ' ' z ` p s s H > S R L p L L ` { [ ' ' { -.{ ' ) I s s P s a I Y P T H & T P d ` ",
"s I a d L L ) { ' ` ` L I L R D 0 t > 9 R L P ) k d z z z ) ) ) { L L a L I L z P y i i 9 & i i a a ",
"K P T F T R D U K D F K T U H t 9 > : $ T H T Y K U P s D U K R H D T R Y R K P H t > @ & S & > T T ",
"$ % & $ 1 & % < & < 6 5 y q @ @ @ X o & @ & 6 O % % 1 # $ @ % % @ + & 9 9 & @ > 1 O X : . < + 5 < 1 ",
"<./ L K 0 +.v., % 5 5 & K w y E #.k.i.@./ / +.s.s.~ R s / <.s.w.! u S > 5 6 1 S L P ~ b.i.! <.! i 4.",
"[.}.=.m c }.dXg $ t @ $ [ ..;.L.>XdX3XY.#X{.I.yXuX#XD.x U.#XuXrX(.6.I 9 @ & & S | T.&XaX3X[.OXH.m $X",
"-.;.x O.9X'.*.| a + 3.U.J.U.H.8.-.8.>.x P.[.].D.B yX&XG.V.;.;.>.%.[ %.L.H t H.$.b | %.>.6.-.-.-.f $X",
"| l ' d.qX_.k X.+.X $.].!.U.T.;.z ' ' %.D.`.F.=.*.4X<XJ.' | ' ' %.' :.|./ ; D.L.x >.8.z O.' _ ' *.].",
"L.' x | ].y.' ].c.: I O.' v %.' ..' 8.XX>.l | J.|.' f X.-.| { g. X;.h %.F & %.8.@X9X0Xm z h l q./.D.",
"-.' | %.D.=.' Z.1.> p k g.-.c | k ' :.J.x ' %.;.A.o.-.[ l | | ;.J.X.z z V y } 5.r.`.`.z :.8.| %.F...",
"b X.' x b | } | P % p ` oX~.x _ k ' x x ' -.' ` ` a f ' ;.} b _ k { O.z S S ) [ c c x x J.|.>.x ' l ",
"' ' ' ..| | ' ) Y % 0 a ] ' o.{ O.' { %.-.k a ] z _.g.x | ' -.x ` Y f s 6 & a ` X.| | | ' -.} _ *.' ",
"-.` ] ] ' ` ` R s % T ` w L o.1.` ' | z ' ' ` L k L.d.` [ ' [ a K L d ` G 5 a W [ _ ' ` ' ' | ' ) I ",
"{ a I K P ) L R p : D R R ` f L ' ' ' [ ) a L ! | ' l a @.) P I P R d d S & L K K L Y p +.' %.' I p ",
"I P Y p Y P T i $ S S 6 S D Y I I I Y I Y I Y I Y I I I L Y I L I Y s & S S > D I L I I I I Y ` Y P ",
"I I P L ) I T t & 6 > & & y Y L L L Y L I I I I L I I d a I I P I I P @ & 6 % y Y L L L L L L I I I "
};
