/* XPM */
static char *de4cd580f9484652b47f2883c0f50f3e6KVv5kEmhkU5tqnO[] = {
/* columns rows colors chars-per-pixel */
"50 50 163 2 ",
"   c #253944",
".  c #293D46",
"X  c #263E49",
"o  c #2C3D4A",
"O  c #313F4E",
"+  c #254049",
"@  c #2D414D",
"#  c #31424E",
"$  c #2E4552",
"%  c #334552",
"&  c #394551",
"*  c #344955",
"=  c #394A56",
"-  c #344758",
";  c #364C5A",
":  c #3B4D5A",
">  c #34505B",
",  c #3D515D",
"<  c #375764",
"1  c #3D5562",
"2  c #3C5965",
"3  c #3D5D69",
"4  c #42525E",
"5  c #425563",
"6  c #485462",
"7  c #435965",
"8  c #445C69",
"9  c #4A5D6B",
"0  c #43616D",
"q  c #4B626E",
"w  c #52646F",
"e  c #456471",
"r  c #4D6572",
"t  c #4B6974",
"y  c #4D6D7A",
"u  c #526673",
"i  c #536975",
"p  c #586C77",
"a  c #546D7A",
"s  c #5A6E7A",
"d  c #4F717B",
"f  c #54727E",
"g  c #5B717E",
"h  c #60707D",
"j  c #557481",
"k  c #5C7482",
"l  c #577881",
"z  c #5C7985",
"x  c #5E7D89",
"c  c #627683",
"v  c #627A86",
"b  c #687C87",
"n  c #637D8A",
"m  c #697E8B",
"M  c #64828D",
"N  c #69828F",
"B  c #668592",
"V  c #6A8692",
"C  c #678995",
"Z  c #6B8A96",
"A  c #6D8D9A",
"S  c #708795",
"D  c #728C97",
"F  c #718E9B",
"G  c #798F9D",
"H  c #6E919C",
"J  c #72919D",
"K  c #79929E",
"L  c #7494A1",
"P  c #7A97A5",
"I  c #7995A3",
"U  c #7698A4",
"Y  c #7699A5",
"T  c #7898A5",
"R  c #7999A4",
"E  c #7A9AA5",
"W  c #7999A6",
"Q  c #799BA7",
"!  c #7A9AA7",
"~  c #7B9BA6",
"^  c #7E98A5",
"/  c #7D9BA6",
"(  c #7A9AA6",
")  c #7B9BA8",
"_  c #7B9DA9",
"`  c #7D9DA8",
"'  c #7C9CA9",
"]  c #7D9FA9",
"[  c #7D9DAA",
"{  c #7F9CAA",
"}  c #7F9FAB",
"|  c #7F9FAC",
" . c #7D9DAA",
".. c #7FA1AC",
"X. c #8196A3",
"o. c #809AA6",
"O. c #819EAC",
"+. c #829FAD",
"@. c #829EAB",
"#. c #80A0AB",
"$. c #83A1AB",
"%. c #81A1AC",
"&. c #80A0AD",
"*. c #82A2AD",
"=. c #81A1AE",
"-. c #80A0AF",
";. c #80A2AE",
":. c #81A3AF",
">. c #82A2AF",
",. c #82A2AE",
"<. c #8AA2AE",
"1. c #83A3B0",
"2. c #86A3B1",
"3. c #84A4B1",
"4. c #85A5B2",
"5. c #85A7B3",
"6. c #84A6B2",
"7. c #87A7B2",
"8. c #86A6B3",
"9. c #85A5B1",
"0. c #8AA5B2",
"q. c #87A9B5",
"w. c #86A9B5",
"e. c #88A8B3",
"r. c #89A9B4",
"t. c #8AAAB5",
"y. c #89A9B6",
"u. c #88AAB6",
"i. c #89ABB7",
"p. c #8AA9B5",
"a. c #8AACB8",
"s. c #8CACB9",
"d. c #8CADB9",
"f. c #91ABB8",
"g. c #92AEBB",
"h. c #8FB1BB",
"j. c #93B2BD",
"k. c #9AB2BE",
"l. c #97B7C4",
"z. c #95B5C2",
"x. c #9BB4C1",
"c. c #97B9C3",
"v. c #9ABAC7",
"b. c #9CBAC6",
"n. c #9FBBC9",
"m. c #9CBCC9",
"M. c #9FBCCA",
"N. c #A4BDCA",
"B. c #A2C2CD",
"V. c #A4C1CE",
"C. c #A8C0CC",
"Z. c #A5C2D2",
"A. c #A6C3D1",
"S. c #ADC7D4",
"D. c #AAC6D2",
"F. c #A8CAD6",
"G. c #ABC8D3",
"H. c #B1C7D5",
"J. c #B1CAD7",
"K. c #B1CEDB",
"L. c #B5D0DC",
"P. c #B5D5E2",
"I. c #BAD6E1",
/* pixels */
"v.' | | | [ 1.1.' &.' +.N.s.; b F.| ' +.[ [ w.W | | [ ..w.S.i : m.l.T | | [ w.) -.P -.+.-.N.{ O X.N.",
"| Z L L A A L C H H L B V N X i y.A J I P C A J Z A Y C A V 9 - 3.T A L J J C A C L D J C F j   V a.",
"' H x j Z J Z A A l n A V n % c w.L B j x H A A L z j A A v 9 6 | T H z j J A J H A f M J B g # m 4.",
"' A y 0 B A C A B 8 y A V v $ s w.L x 3 j A H B Z j < A V V 5 = [ T C t e C C C C M 2 f A V f @ B y.",
"[ A J F A A L A J A F F B n - s w.L F F J J J A A A J J B V 9 = 1.) A A A J Z A H A Z J H N s # n 2.",
") A ) [ J C A C F { ' A m n % p w.V L -.P C C A A J w.J V m 9 : 1.L Z | _ H Z Z H J $.R C B g # V y.",
"' H A C J A C J Z A A A C v $ p a.A A A A Z F A A Z A A V V 5 : 1.L Z H A A A A A Z J Z C V k o V 0.",
"[ C A C A A F C A C C F V z % s w.A A V F C A F Z A J C Z V 5 : 1.Q Z A Z A Z A C Z A Z H B j O m 6.",
"{ A A A A Z D Z Z H A Z A z - i a.D Z Z D A A C Z D H H V B 9 = &.R V D D A H Z A Z C A A V k O B 6.",
") F y e M A H J H , f J m v % k ..K V 0 j J C H J j < Z V V 1 5 ..L J t r A A C H M 3 x A m k O M 2.",
"[ L z j H J Z B Z d f J V v ; i i.J B y M J M A Z M d B F D 7 : ..U F j f Z Z A Z Z y z A B k O Z y.",
"T A [ ) J Z H H Z h.Y Z V k % h w.A J <.' Z H A Z U &.A V v 5 : | U C +.6.A H A Z H 4.[ J n i O x 1.",
"z.z J J M V Z Z M Z K M o.<.o c B.A N K V v J B M D L V F k.u : c.0.x F K v H N B V K M M w.G O L b.",
"z.n v z N N g M b z M f k.N.% N F.A z z b n n n m v j z F H.s 4 b.0.n v v z M z z M c n M V.0.. @.N.",
"% % * $ * @ * = = = = $ # : @ # > @ = : : % $ - 5 % 1 % ; : . # , % % = ; ; * * , % % > X ; : . O : ",
"u i u w p p g 7 = g p i f w p i i p w w u u c u % 9 v u u i p w w i u u u q g h : : c p i i r p i u ",
"w.y.t.7.7.j.L.c * D.c.6.d.0.r.7.y.w.w.6.z.-.K.z.o A P.z.[ z.| w.e.i.:.i.r.&.b.K.8 7 I.h.3.s.y.w.y.y.",
"J J J J K V / q * <.6.H J J J J J U U H J J L m o m z.H A J L H H H J L L J J J 4 5 j._ F L A L A A ",
"B H Z M H M M q ; K _ H B V A Z Z Z C x A A k k - m [ A A x A A A M H M N J v M : q $.A A C M A A Z ",
"H C f 3 M H V 4 ; $._ C t 0 Z D A A C 3 k J m j X m w.J x 3 j H V H H 0 0 H A M 4 7 :.U C 3 y A A A ",
"H C M l A C M q * @.R Z M z A A A Z C x B B A k O n w.A B z B A Z A A M v Z V n , 5 t.J Z v B C A Z ",
"C A $.*.K B M q * R ..H &.y.J A A Z A a.[ V m x - x | C W w.) A H C A :.7.J B B , 7 :.J A g.6.Z A A ",
"H A A Z A V N 8 > o...B A F M J C L A L B A Z j X m z.n C L A C C A Z C A J A n 4 , :...C A V H C A ",
"C J V A J Z N 8 * ..U C A Z A H A Z C C J C m j $ x w.H A m C L A Z A A Z A B V , 8 7.J A Z A A A A ",
"Z Z H H A D N 9 : K / H J D H C H Z A A J D n z % b ,.J A D Z D C A Z J J Z V m : 9 6.H V I Z Z A A ",
"H V l d Z M Z 8 : ,./ B z f A H Z A Z t x A V j % v y.A M f N Z H B Z d f K V B 4 1 0.U A a j J C A ",
"C U j 3 V Z Z 7 ; K ..H t 0 A B C A V 0 z D V k O z s.L z 2 z J A A L y t D M B : 5 y.L Z e j C A A ",
"H Z U ..A B B 7 ; / E B _ { Z H A F J I L A n a % n ,.A H $.R Z Z Z A L U L V z 4 2 1.L F [ P F A A ",
"B A J P A A o.u : 2.0.M G O.Z C C V C | J V / A X N h.A J +.V Z A Z B ^ E N J / , 1 j._ m ) L F S C ",
"V V m n v ^ I.k : N.g.z S m v V B N B M M V N.g.o o.L.V z m N V N n n V n N <.L.9 u C.@.v b m m m B ",
", 7 8 5 9 1 c 6 O s r 5 5 7 q 5 , 5 7 1 5 5 g w # 8 s 1 9 5 9 5 9 5 5 5 5 8 q p & * z q 7 9 7 1 7 7 ",
"6 - 4 - 5 4 O 4 5 & : 5 - - : 5 4 4 : : 4 : & = 4 4 * , , % 4 : = , , 4 , : : : 4 , * , , : % 5 , , ",
"2.4.| 1...6...6.:._ h.D.u 5 C.z.) -.y.-.[ -.-.-.2.-.| D.<.O X.A.| | w.| [ w.-.-.[ 4._ j.S.- p S.a.[ ",
"P L T [ K ....J U U R j.q , z.i.U W L W [ W L ) P P P s.D @ G v._ L I L | W P W ) ) U &.p.4 u n.| L ",
"Z A A C B B Z Z D H M N 5 : +.U B H A C A A n C V C C n p o N &.A A A C C C A C A B C B k - 8 y.L V ",
"B 8 z F H H K f e Z C B 7 , 2.Y A t y C H F H C 8 x L B s % V w.J l e C A F A F r a H B m : t w.L C ",
"B t z Z H Z H g y B C V 5 , +.P A j j B A A A B t n C V j o M 1.Z x t B A A B A y l A n S - e w.L V ",
"K 7.Q B J V B $.4.L B m 7 4 2.T A | ' F C A J J ,._ B M c # D &.A | -.L C A L A +.[ A B m - 8 z.L C ",
"A U A C Z H A H J Z B V 8 : O.) C L J C J C C J I J Z V s X V 6.A C L A L C A C L L C A m , 9 0.L C ",
"A H B H H H B H C J A v 8 4 -.W A C A A A A J Z D B A V s O D 2.C C J A C F A A Z C H m n : r 2.U C ",
"A A A V A J H A A A A M 7 : +.Q N H H Z H Z C H A A J V i $ D 1.V A L Z Z V A Z Z U Z Z b , q r.U B ",
"A n B A A Z V V x Z V m 7 : y.U J v B D Z A G m M V B V g o B 6.F A z V A A J H M x Z M N % 8 t.L V ",
"n 3 a L Z D J a 2 C Z m 9 : / ' J 8 0 Z D A F B ; z J B f % Z y.J j 2 n J D H D 3 e J M V , u 0.J A ",
"A F A Z A D Z H J A V n 5 1 +.L Z Z H Z A F A A D Z H M k @ v &.A F Z D Z Z D Z J N H Z v $ q <.J C ",
"F ,.I V A Z Z K :.H N D 3 1 2.Q M *.$.Z Z Z B J *.K B Z g + D 6.C I 6.D V Z H Z ....A N Z ; r 6.U B ",
"B z N Z N Z Z M Z l $.L.u , J.y.M M M M Z V M V S M M G.<.X @.K.V z V M Z V M M N M M <.J.1 t L.R N ",
"p g p u p q q g u r h X.q : G N q p s i w p s u i a t J m % v F u p g u q g p w r u i m X.% 7 @.k r ",
"@ @ # @ # # # @ = # . O # % O o # # @ # % # . # & # % X O & O O # # o * # # @ # * # O . O & = . % o ",
"J H K J J L x.u % p.2.A L J J H J J J G J F g.G o m z.J F L G L J J J F L D O.g.6 1 z._ A J J J J F ",
":.$.:.&.&.0.D.v : b.z.+.3.2.1.3.3.-.-.1.-.2.N.0.O G D.4.-.2.-.3.2.&.6.&.6.+.g.Z.9 r D.d.&.2.6.:.1.2."
};
